<svg
  width="22"
  height="22"
  viewBox="0 0 22 22"
  fill="none"
  xmlns="http://www.w3.org/2000/svg"
>
  <g clip-path="url(#clip0_2_379)">
    <path
      d="M9.95668 3.01491C11.0678 2.8854 12.1404 2.99101 13.1318 3.28051C16.4267 4.24267 18.8497 7.27028 18.8924 10.8648L21.0462 10.8624C21.1659 10.8622 21.23 11.0117 21.1574 11.1101L17.901 15.5463C17.8454 15.619 17.7343 15.6191 17.6831 15.5465L14.4267 11.1222C14.354 11.0197 14.4181 10.8743 14.5378 10.8742L16.6873 10.8717C16.6489 8.50808 15.1916 6.49234 13.1318 5.62706C12.3541 5.29884 11.4951 5.13314 10.5934 5.1812C9.35412 5.24675 8.21312 5.71396 7.29005 6.45019C6.79861 6.84399 6.08067 6.75079 5.70888 6.24259C5.35419 5.76001 5.45248 5.08457 5.92255 4.71217C7.05929 3.80045 8.44388 3.19191 9.95668 3.01491V3.01491ZM14.0934 15.8071C13.1746 16.5476 12.0293 17.0148 10.79 17.0761C9.88403 17.1242 9.02507 16.9542 8.25158 16.6303C6.19178 15.765 4.73026 13.7492 4.69608 11.3856L6.84561 11.3832C6.96527 11.383 7.02937 11.2333 6.95672 11.1351L3.70037 6.70653C3.64481 6.63393 3.5337 6.63406 3.48242 6.70678L0.22606 11.1386C0.153412 11.2413 0.217514 11.3866 0.33717 11.3864L2.49098 11.3839C2.52944 14.9785 4.95248 18.0104 8.25158 18.9683C9.24301 19.2578 10.3156 19.3591 11.4267 19.2339C12.9395 19.0611 14.3241 18.4526 15.4609 17.5409C15.9309 17.1642 16.0292 16.493 15.6745 16.0105C15.3027 15.5065 14.5848 15.4133 14.0934 15.8071V15.8071Z"
      fill="#757575"
      stroke="white"
      stroke-width="0.3"
    />
  </g>
  <defs>
    <clipPath id="clip0_2_379">
      <rect
        width="20.9964"
        height="20.9926"
        fill="white"
        transform="matrix(-4.37114e-08 1 -0.999999 0.00115771 21.188 0.613281)"
      />
    </clipPath>
  </defs>
</svg>