<svg width="11" height="11" viewBox="0 0 11 11" fill="none" xmlns="http://www.w3.org/2000/svg">
<path d="M3.73025 3.85733L4.03761 3.81471L4.18048 3.53926L5.46534 1.06195C5.46536 1.06191 5.46538 1.06187 5.4654 1.06183C5.46696 1.05886 5.46772 1.0583 5.46731 1.05872C5.46704 1.05899 5.46725 1.05866 5.46865 1.05787C5.47216 1.0559 5.48178 1.0521 5.49647 1.05215C5.5112 1.05219 5.52173 1.0561 5.5264 1.05874L5.52838 1.06001L5.52881 1.06037L5.52885 1.06042L5.52902 1.06064L5.53032 1.06282L5.53033 1.06284L6.81473 3.53926L6.9576 3.81471L7.26496 3.85733L10.1399 4.2559L10.1404 4.25596C10.1431 4.25634 10.1456 4.25678 10.1477 4.25724L8.08285 6.17058L7.84179 6.39396L7.90022 6.71737L8.38947 9.42506C8.38212 9.42955 8.37327 9.43251 8.36495 9.43324C8.35781 9.43387 8.34957 9.43316 8.3379 9.42733L8.33781 9.42728L5.76586 8.14173L5.4976 8.00764L5.22935 8.14173L2.6574 9.42728L2.65556 9.42821C2.6441 9.43398 2.63634 9.43456 2.6298 9.43399C2.62179 9.43329 2.61299 9.43035 2.60562 9.42572L3.09499 6.71737L3.15342 6.39396L2.91236 6.17058L0.847536 4.25724C0.849639 4.25678 0.852065 4.25634 0.854842 4.25596L0.855259 4.2559L3.73025 3.85733ZM8.39219 9.44004L8.98262 9.33336C9.07117 9.8255 8.52608 10.1923 8.06955 9.96397L8.39219 9.44004Z" fill="white" stroke="#7AC751" stroke-width="1.2"/>
</svg>